<?xml version="1.0" encoding="UTF-8" standalone="no"?>
<!DOCTYPE svg PUBLIC "-//W3C//DTD SVG 1.1//EN"
 "http://www.w3.org/Graphics/SVG/1.1/DTD/svg11.dtd">
<!-- Generated by graphviz version 2.26.3 (20100126.1600)
 -->
<!-- Title: models_diagram Pages: 1 -->
<svg width="1082pt" height="536pt"
 viewBox="0.00 0.00 1082.00 536.00" xmlns="http://www.w3.org/2000/svg" xmlns:xlink="http://www.w3.org/1999/xlink">
<g id="graph1" class="graph" transform="scale(1 1) rotate(0) translate(4 532)">
<title>models_diagram</title>
<polygon fill="white" stroke="white" points="-4,5 -4,-532 1079,-532 1079,5 -4,5"/>
<!-- _diagram_info -->
<g id="node1" class="node"><title>_diagram_info</title>
<text text-anchor="start" x="7.5" y="-476.4" font-family="Times,serif" font-size="14.00">Models diagram</text>
<text text-anchor="start" x="7.5" y="-461.4" font-family="Times,serif" font-size="14.00">Date: Aug 16 2010 &#45; 12:56</text>
<text text-anchor="start" x="7.5" y="-446.4" font-family="Times,serif" font-size="14.00">Migration version: 20100816082601</text>
<text text-anchor="start" x="7.5" y="-431.4" font-family="Times,serif" font-size="14.00">Generated by RailRoad 0.5.0</text>
</g>
<!-- Artist -->
<g id="node2" class="node"><title>Artist</title>
<polyline fill="none" stroke="black" points="140.5,-245 251.5,-245 "/>
<path fill="none" stroke="black" d="M251.5,-245C257.5,-245 263.5,-251 263.5,-257"/>
<polyline fill="none" stroke="black" points="263.5,-257 263.5,-339 "/>
<path fill="none" stroke="black" d="M263.5,-339C263.5,-345 257.5,-351 251.5,-351"/>
<polyline fill="none" stroke="black" points="251.5,-351 140.5,-351 "/>
<path fill="none" stroke="black" d="M140.5,-351C134.5,-351 128.5,-345 128.5,-339"/>
<polyline fill="none" stroke="black" points="128.5,-339 128.5,-257 "/>
<path fill="none" stroke="black" d="M128.5,-257C128.5,-251 134.5,-245 140.5,-245"/>
<text text-anchor="middle" x="196" y="-334.4" font-family="Times,serif" font-size="14.00">Artist</text>
<polyline fill="none" stroke="black" points="128.5,-328 263.5,-328 "/>
<text text-anchor="start" x="136.5" y="-311.4" font-family="Times,serif" font-size="14.00">first_name :string</text>
<text text-anchor="start" x="136.5" y="-296.4" font-family="Times,serif" font-size="14.00">middle_name :string</text>
<text text-anchor="start" x="136.5" y="-281.4" font-family="Times,serif" font-size="14.00">last_name :string</text>
<text text-anchor="start" x="136.5" y="-266.4" font-family="Times,serif" font-size="14.00">created_at :datetime</text>
<text text-anchor="start" x="136.5" y="-251.4" font-family="Times,serif" font-size="14.00">updated_at :datetime</text>
</g>
<!-- Instrument -->
<g id="node6" class="node"><title>Instrument</title>
<polyline fill="none" stroke="black" points="140.5,-122 251.5,-122 "/>
<path fill="none" stroke="black" d="M251.5,-122C257.5,-122 263.5,-128 263.5,-134"/>
<polyline fill="none" stroke="black" points="263.5,-134 263.5,-186 "/>
<path fill="none" stroke="black" d="M263.5,-186C263.5,-192 257.5,-198 251.5,-198"/>
<polyline fill="none" stroke="black" points="251.5,-198 140.5,-198 "/>
<path fill="none" stroke="black" d="M140.5,-198C134.5,-198 128.5,-192 128.5,-186"/>
<polyline fill="none" stroke="black" points="128.5,-186 128.5,-134 "/>
<path fill="none" stroke="black" d="M128.5,-134C128.5,-128 134.5,-122 140.5,-122"/>
<text text-anchor="middle" x="196" y="-181.4" font-family="Times,serif" font-size="14.00">Instrument</text>
<polyline fill="none" stroke="black" points="128.5,-175 263.5,-175 "/>
<text text-anchor="start" x="136.5" y="-158.4" font-family="Times,serif" font-size="14.00">name :string</text>
<text text-anchor="start" x="136.5" y="-143.4" font-family="Times,serif" font-size="14.00">created_at :datetime</text>
<text text-anchor="start" x="136.5" y="-128.4" font-family="Times,serif" font-size="14.00">updated_at :datetime</text>
</g>
<!-- Artist&#45;&gt;Instrument -->
<g id="edge2" class="edge"><title>Artist&#45;&gt;Instrument</title>
<path fill="none" stroke="black" d="M196,-234.368C196,-225.593 196,-216.703 196,-208.268"/>
<polygon fill="black" stroke="black" points="196,-234.646 191.5,-244.646 196,-239.646 196,-244.646 196,-244.646 196,-244.646 196,-239.646 200.5,-244.646 196,-234.646 196,-234.646"/>
<polygon fill="black" stroke="black" points="196,-208.243 200.5,-198.243 196,-203.243 196,-198.243 196,-198.243 196,-198.243 196,-203.243 191.5,-198.243 196,-208.243 196,-208.243"/>
</g>
<!-- Performance -->
<g id="node9" class="node"><title>Performance</title>
<polyline fill="none" stroke="black" points="368.5,-114.5 479.5,-114.5 "/>
<path fill="none" stroke="black" d="M479.5,-114.5C485.5,-114.5 491.5,-120.5 491.5,-126.5"/>
<polyline fill="none" stroke="black" points="491.5,-126.5 491.5,-193.5 "/>
<path fill="none" stroke="black" d="M491.5,-193.5C491.5,-199.5 485.5,-205.5 479.5,-205.5"/>
<polyline fill="none" stroke="black" points="479.5,-205.5 368.5,-205.5 "/>
<path fill="none" stroke="black" d="M368.5,-205.5C362.5,-205.5 356.5,-199.5 356.5,-193.5"/>
<polyline fill="none" stroke="black" points="356.5,-193.5 356.5,-126.5 "/>
<path fill="none" stroke="black" d="M356.5,-126.5C356.5,-120.5 362.5,-114.5 368.5,-114.5"/>
<text text-anchor="middle" x="424" y="-188.9" font-family="Times,serif" font-size="14.00">Performance</text>
<polyline fill="none" stroke="black" points="356.5,-182.5 491.5,-182.5 "/>
<text text-anchor="start" x="364.5" y="-165.9" font-family="Times,serif" font-size="14.00">date :date</text>
<text text-anchor="start" x="364.5" y="-150.9" font-family="Times,serif" font-size="14.00">desc :text</text>
<text text-anchor="start" x="364.5" y="-135.9" font-family="Times,serif" font-size="14.00">created_at :datetime</text>
<text text-anchor="start" x="364.5" y="-120.9" font-family="Times,serif" font-size="14.00">updated_at :datetime</text>
</g>
<!-- Artist&#45;&gt;Performance -->
<g id="edge6" class="edge"><title>Artist&#45;&gt;Performance</title>
<path fill="none" stroke="black" d="M272.58,-243.802C287.643,-234.668 292.534,-232.856 305,-226 318.669,-218.482 333.205,-210.45 347.25,-202.671"/>
<polygon fill="black" stroke="black" points="272.184,-244.047 261.313,-245.485 267.933,-246.679 263.682,-249.311 263.682,-249.311 263.682,-249.311 267.933,-246.679 266.051,-253.137 272.184,-244.047 272.184,-244.047"/>
<polygon fill="black" stroke="black" points="347.648,-202.451 358.576,-201.539 352.021,-200.027 356.394,-197.603 356.394,-197.603 356.394,-197.603 352.021,-200.027 354.213,-193.667 347.648,-202.451 347.648,-202.451"/>
</g>
<!-- Performer -->
<g id="node10" class="node"><title>Performer</title>
<polyline fill="none" stroke="black" points="237.5,-0.5 348.5,-0.5 "/>
<path fill="none" stroke="black" d="M348.5,-0.5C354.5,-0.5 360.5,-6.5 360.5,-12.5"/>
<polyline fill="none" stroke="black" points="360.5,-12.5 360.5,-49.5 "/>
<path fill="none" stroke="black" d="M360.5,-49.5C360.5,-55.5 354.5,-61.5 348.5,-61.5"/>
<polyline fill="none" stroke="black" points="348.5,-61.5 237.5,-61.5 "/>
<path fill="none" stroke="black" d="M237.5,-61.5C231.5,-61.5 225.5,-55.5 225.5,-49.5"/>
<polyline fill="none" stroke="black" points="225.5,-49.5 225.5,-12.5 "/>
<path fill="none" stroke="black" d="M225.5,-12.5C225.5,-6.5 231.5,-0.5 237.5,-0.5"/>
<text text-anchor="middle" x="293" y="-44.9" font-family="Times,serif" font-size="14.00">Performer</text>
<polyline fill="none" stroke="black" points="225.5,-38.5 360.5,-38.5 "/>
<text text-anchor="start" x="233.5" y="-21.9" font-family="Times,serif" font-size="14.00">created_at :datetime</text>
<text text-anchor="start" x="233.5" y="-6.9" font-family="Times,serif" font-size="14.00">updated_at :datetime</text>
</g>
<!-- Artist&#45;&gt;Performer -->
<g id="edge4" class="edge"><title>Artist&#45;&gt;Performer</title>
<path fill="none" stroke="black" d="M254.219,-236.937C261.166,-227.157 267.409,-216.711 272,-206 290.805,-162.126 294.49,-106.742 294.499,-70.1666"/>
<polygon fill="black" stroke="black" points="254.203,-236.959 244.627,-242.303 251.221,-240.973 248.239,-244.986 248.239,-244.986 248.239,-244.986 251.221,-240.973 251.851,-247.67 254.203,-236.959 254.203,-236.959"/>
<ellipse fill="black" stroke="black" cx="294.466" cy="-65.748" rx="4" ry="4"/>
</g>
<!-- Band -->
<g id="node3" class="node"><title>Band</title>
<polyline fill="none" stroke="black" points="292.5,-252.5 403.5,-252.5 "/>
<path fill="none" stroke="black" d="M403.5,-252.5C409.5,-252.5 415.5,-258.5 415.5,-264.5"/>
<polyline fill="none" stroke="black" points="415.5,-264.5 415.5,-331.5 "/>
<path fill="none" stroke="black" d="M415.5,-331.5C415.5,-337.5 409.5,-343.5 403.5,-343.5"/>
<polyline fill="none" stroke="black" points="403.5,-343.5 292.5,-343.5 "/>
<path fill="none" stroke="black" d="M292.5,-343.5C286.5,-343.5 280.5,-337.5 280.5,-331.5"/>
<polyline fill="none" stroke="black" points="280.5,-331.5 280.5,-264.5 "/>
<path fill="none" stroke="black" d="M280.5,-264.5C280.5,-258.5 286.5,-252.5 292.5,-252.5"/>
<text text-anchor="middle" x="348" y="-326.9" font-family="Times,serif" font-size="14.00">Band</text>
<polyline fill="none" stroke="black" points="280.5,-320.5 415.5,-320.5 "/>
<text text-anchor="start" x="288.5" y="-303.9" font-family="Times,serif" font-size="14.00">name :string</text>
<text text-anchor="start" x="288.5" y="-288.9" font-family="Times,serif" font-size="14.00">desc :text</text>
<text text-anchor="start" x="288.5" y="-273.9" font-family="Times,serif" font-size="14.00">created_at :datetime</text>
<text text-anchor="start" x="288.5" y="-258.9" font-family="Times,serif" font-size="14.00">updated_at :datetime</text>
</g>
<!-- Band&#45;&gt;Performance -->
<g id="edge10" class="edge"><title>Band&#45;&gt;Performance</title>
<path fill="none" stroke="black" d="M378.053,-243.43C383.618,-233.326 389.421,-222.788 394.955,-212.739"/>
<polygon fill="black" stroke="black" points="377.92,-243.672 369.154,-250.26 375.508,-248.051 373.096,-252.431 373.096,-252.431 373.096,-252.431 375.508,-248.051 377.038,-254.602 377.92,-243.672 377.92,-243.672"/>
<ellipse fill="black" stroke="black" cx="397.001" cy="-209.025" rx="4.00002" ry="4.00002"/>
</g>
<!-- Band&#45;&gt;Performer -->
<g id="edge8" class="edge"><title>Band&#45;&gt;Performer</title>
<path fill="none" stroke="black" d="M337.756,-242.409C329.448,-198.27 317.161,-135.04 305,-80 304.38,-77.1939 303.722,-74.3021 303.045,-71.3927"/>
<polygon fill="black" stroke="black" points="337.779,-242.535 335.2,-253.193 338.701,-247.449 339.623,-252.364 339.623,-252.364 339.623,-252.364 338.701,-247.449 344.046,-251.534 337.779,-242.535 337.779,-242.535"/>
<polygon fill="black" stroke="black" points="303.014,-71.2616 305.083,-60.4925 301.859,-66.3968 300.704,-61.532 300.704,-61.532 300.704,-61.532 301.859,-66.3968 296.326,-62.5715 303.014,-71.2616 303.014,-71.2616"/>
</g>
<!-- Event -->
<g id="node4" class="node"><title>Event</title>
<polyline fill="none" stroke="black" points="401.5,-413.5 512.5,-413.5 "/>
<path fill="none" stroke="black" d="M512.5,-413.5C518.5,-413.5 524.5,-419.5 524.5,-425.5"/>
<polyline fill="none" stroke="black" points="524.5,-425.5 524.5,-492.5 "/>
<path fill="none" stroke="black" d="M524.5,-492.5C524.5,-498.5 518.5,-504.5 512.5,-504.5"/>
<polyline fill="none" stroke="black" points="512.5,-504.5 401.5,-504.5 "/>
<path fill="none" stroke="black" d="M401.5,-504.5C395.5,-504.5 389.5,-498.5 389.5,-492.5"/>
<polyline fill="none" stroke="black" points="389.5,-492.5 389.5,-425.5 "/>
<path fill="none" stroke="black" d="M389.5,-425.5C389.5,-419.5 395.5,-413.5 401.5,-413.5"/>
<text text-anchor="middle" x="457" y="-487.9" font-family="Times,serif" font-size="14.00">Event</text>
<polyline fill="none" stroke="black" points="389.5,-481.5 524.5,-481.5 "/>
<text text-anchor="start" x="397.5" y="-464.9" font-family="Times,serif" font-size="14.00">name :string</text>
<text text-anchor="start" x="397.5" y="-449.9" font-family="Times,serif" font-size="14.00">desc :text</text>
<text text-anchor="start" x="397.5" y="-434.9" font-family="Times,serif" font-size="14.00">created_at :datetime</text>
<text text-anchor="start" x="397.5" y="-419.9" font-family="Times,serif" font-size="14.00">updated_at :datetime</text>
</g>
<!-- Event&#45;&gt;Band -->
<g id="edge14" class="edge"><title>Event&#45;&gt;Band</title>
<path fill="none" stroke="black" d="M420.387,-404.92C408.899,-387.952 396.218,-369.222 384.723,-352.242"/>
<polygon fill="black" stroke="black" points="420.45,-405.014 422.33,-415.817 423.253,-409.154 426.057,-413.295 426.057,-413.295 426.057,-413.295 423.253,-409.154 429.783,-410.772 420.45,-405.014 420.45,-405.014"/>
<polygon fill="black" stroke="black" points="384.438,-351.822 382.558,-341.018 381.635,-347.681 378.832,-343.541 378.832,-343.541 378.832,-343.541 381.635,-347.681 375.106,-346.064 384.438,-351.822 384.438,-351.822"/>
</g>
<!-- Location -->
<g id="node7" class="node"><title>Location</title>
<polyline fill="none" stroke="black" points="482.5,-252.5 593.5,-252.5 "/>
<path fill="none" stroke="black" d="M593.5,-252.5C599.5,-252.5 605.5,-258.5 605.5,-264.5"/>
<polyline fill="none" stroke="black" points="605.5,-264.5 605.5,-331.5 "/>
<path fill="none" stroke="black" d="M605.5,-331.5C605.5,-337.5 599.5,-343.5 593.5,-343.5"/>
<polyline fill="none" stroke="black" points="593.5,-343.5 482.5,-343.5 "/>
<path fill="none" stroke="black" d="M482.5,-343.5C476.5,-343.5 470.5,-337.5 470.5,-331.5"/>
<polyline fill="none" stroke="black" points="470.5,-331.5 470.5,-264.5 "/>
<path fill="none" stroke="black" d="M470.5,-264.5C470.5,-258.5 476.5,-252.5 482.5,-252.5"/>
<text text-anchor="middle" x="538" y="-326.9" font-family="Times,serif" font-size="14.00">Location</text>
<polyline fill="none" stroke="black" points="470.5,-320.5 605.5,-320.5 "/>
<text text-anchor="start" x="478.5" y="-303.9" font-family="Times,serif" font-size="14.00">name :string</text>
<text text-anchor="start" x="478.5" y="-288.9" font-family="Times,serif" font-size="14.00">desc :text</text>
<text text-anchor="start" x="478.5" y="-273.9" font-family="Times,serif" font-size="14.00">created_at :datetime</text>
<text text-anchor="start" x="478.5" y="-258.9" font-family="Times,serif" font-size="14.00">updated_at :datetime</text>
</g>
<!-- Event&#45;&gt;Location -->
<g id="edge12" class="edge"><title>Event&#45;&gt;Location</title>
<path fill="none" stroke="black" d="M484.611,-404.118C492.984,-387.477 502.176,-369.206 510.538,-352.584"/>
<polygon fill="black" stroke="black" points="484.489,-404.361 475.975,-411.272 482.242,-408.828 479.995,-413.295 479.995,-413.295 479.995,-413.295 482.242,-408.828 484.015,-415.317 484.489,-404.361 484.489,-404.361"/>
<polygon fill="black" stroke="black" points="510.594,-352.474 519.108,-345.563 512.841,-348.007 515.088,-343.541 515.088,-343.541 515.088,-343.541 512.841,-348.007 511.068,-341.518 510.594,-352.474 510.594,-352.474"/>
</g>
<!-- Event&#45;&gt;Performance -->
<g id="edge16" class="edge"><title>Event&#45;&gt;Performance</title>
<path fill="none" stroke="black" d="M450.818,-402.988C444.834,-348.773 435.827,-267.159 429.93,-213.73"/>
<polygon fill="black" stroke="black" points="450.855,-403.323 447.479,-413.757 451.404,-408.293 451.952,-413.263 451.952,-413.263 451.952,-413.263 451.404,-408.293 456.425,-412.769 450.855,-403.323 450.855,-403.323"/>
<ellipse fill="black" stroke="black" cx="429.486" cy="-209.708" rx="4.00001" ry="4.00001"/>
</g>
<!-- Genre -->
<g id="node5" class="node"><title>Genre</title>
<polyline fill="none" stroke="black" points="249.5,-413.5 360.5,-413.5 "/>
<path fill="none" stroke="black" d="M360.5,-413.5C366.5,-413.5 372.5,-419.5 372.5,-425.5"/>
<polyline fill="none" stroke="black" points="372.5,-425.5 372.5,-492.5 "/>
<path fill="none" stroke="black" d="M372.5,-492.5C372.5,-498.5 366.5,-504.5 360.5,-504.5"/>
<polyline fill="none" stroke="black" points="360.5,-504.5 249.5,-504.5 "/>
<path fill="none" stroke="black" d="M249.5,-504.5C243.5,-504.5 237.5,-498.5 237.5,-492.5"/>
<polyline fill="none" stroke="black" points="237.5,-492.5 237.5,-425.5 "/>
<path fill="none" stroke="black" d="M237.5,-425.5C237.5,-419.5 243.5,-413.5 249.5,-413.5"/>
<text text-anchor="middle" x="305" y="-487.9" font-family="Times,serif" font-size="14.00">Genre</text>
<polyline fill="none" stroke="black" points="237.5,-481.5 372.5,-481.5 "/>
<text text-anchor="start" x="245.5" y="-464.9" font-family="Times,serif" font-size="14.00">name :string</text>
<text text-anchor="start" x="245.5" y="-449.9" font-family="Times,serif" font-size="14.00">desc :text</text>
<text text-anchor="start" x="245.5" y="-434.9" font-family="Times,serif" font-size="14.00">created_at :datetime</text>
<text text-anchor="start" x="245.5" y="-419.9" font-family="Times,serif" font-size="14.00">updated_at :datetime</text>
</g>
<!-- Genre&#45;&gt;Band -->
<g id="edge18" class="edge"><title>Genre&#45;&gt;Band</title>
<path fill="none" stroke="black" d="M319.801,-403.582C324.296,-386.751 329.225,-368.296 333.688,-351.588"/>
<polygon fill="black" stroke="black" points="319.787,-403.633 312.859,-412.133 318.497,-408.464 317.207,-413.295 317.207,-413.295 317.207,-413.295 318.497,-408.464 321.555,-414.456 319.787,-403.633 319.787,-403.633"/>
<ellipse fill="black" stroke="black" cx="334.805" cy="-347.405" rx="4.00001" ry="4.00001"/>
</g>
<!-- Instrument&#45;&gt;Performer -->
<g id="edge20" class="edge"><title>Instrument&#45;&gt;Performer</title>
<path fill="none" stroke="black" d="M230.812,-113.704C241.955,-98.8846 254.148,-82.6687 264.763,-68.5523"/>
<polygon fill="black" stroke="black" points="230.589,-114.001 220.982,-119.289 227.584,-117.997 224.579,-121.993 224.579,-121.993 224.579,-121.993 227.584,-117.997 228.175,-124.698 230.589,-114.001 230.589,-114.001"/>
<ellipse fill="black" stroke="black" cx="267.431" cy="-65.0035" rx="4.00002" ry="4.00002"/>
</g>
<!-- Location&#45;&gt;Performance -->
<g id="edge22" class="edge"><title>Location&#45;&gt;Performance</title>
<path fill="none" stroke="black" d="M493.826,-244.526C484.93,-233.758 475.595,-222.457 466.749,-211.749"/>
<polygon fill="black" stroke="black" points="493.987,-244.722 496.887,-255.297 497.172,-248.576 500.356,-252.431 500.356,-252.431 500.356,-252.431 497.172,-248.576 503.826,-249.565 493.987,-244.722 493.987,-244.722"/>
<ellipse fill="black" stroke="black" cx="464.152" cy="-208.605" rx="4.00002" ry="4.00002"/>
</g>
<!-- Media -->
<g id="node8" class="node"><title>Media</title>
<polyline fill="none" stroke="black" points="553.5,-398.5 664.5,-398.5 "/>
<path fill="none" stroke="black" d="M664.5,-398.5C670.5,-398.5 676.5,-404.5 676.5,-410.5"/>
<polyline fill="none" stroke="black" points="676.5,-410.5 676.5,-507.5 "/>
<path fill="none" stroke="black" d="M676.5,-507.5C676.5,-513.5 670.5,-519.5 664.5,-519.5"/>
<polyline fill="none" stroke="black" points="664.5,-519.5 553.5,-519.5 "/>
<path fill="none" stroke="black" d="M553.5,-519.5C547.5,-519.5 541.5,-513.5 541.5,-507.5"/>
<polyline fill="none" stroke="black" points="541.5,-507.5 541.5,-410.5 "/>
<path fill="none" stroke="black" d="M541.5,-410.5C541.5,-404.5 547.5,-398.5 553.5,-398.5"/>
<text text-anchor="middle" x="609" y="-502.9" font-family="Times,serif" font-size="14.00">Media</text>
<polyline fill="none" stroke="black" points="541.5,-496.5 676.5,-496.5 "/>
<text text-anchor="start" x="549.5" y="-479.9" font-family="Times,serif" font-size="14.00">name :string</text>
<text text-anchor="start" x="549.5" y="-464.9" font-family="Times,serif" font-size="14.00">mime :string</text>
<text text-anchor="start" x="549.5" y="-449.9" font-family="Times,serif" font-size="14.00">url :text</text>
<text text-anchor="start" x="549.5" y="-434.9" font-family="Times,serif" font-size="14.00">created_at :datetime</text>
<text text-anchor="start" x="549.5" y="-419.9" font-family="Times,serif" font-size="14.00">updated_at :datetime</text>
<text text-anchor="start" x="549.5" y="-404.9" font-family="Times,serif" font-size="14.00">description :text</text>
</g>
<!-- Performance&#45;&gt;Performer -->
<g id="edge24" class="edge"><title>Performance&#45;&gt;Performer</title>
<path fill="none" stroke="black" d="M370.492,-107.094C361.327,-98.0492 351.894,-88.7501 343,-80 338.83,-75.8979 334.462,-71.6065 330.116,-67.3418"/>
<polygon fill="black" stroke="black" points="370.653,-107.253 374.608,-117.481 374.211,-110.766 377.769,-114.279 377.769,-114.279 377.769,-114.279 374.211,-110.766 380.931,-111.076 370.653,-107.253 370.653,-107.253"/>
<ellipse fill="black" stroke="black" cx="327.08" cy="-64.3644" rx="4.00002" ry="4.00002"/>
</g>
<!-- Medium -->
<g id="node26" class="node"><title>Medium</title>
<ellipse fill="none" stroke="black" cx="424" cy="-31" rx="42.8962" ry="18"/>
<text text-anchor="middle" x="424" y="-25.9" font-family="Times,serif" font-size="14.00">Medium</text>
</g>
<!-- Performance&#45;&gt;Medium -->
<g id="edge26" class="edge"><title>Performance&#45;&gt;Medium</title>
<path fill="none" stroke="black" d="M424,-103.981C424,-87.8027 424,-70.9001 424,-57.4401"/>
<polygon fill="black" stroke="black" points="424,-104.156 419.5,-114.156 424,-109.156 424,-114.156 424,-114.156 424,-114.156 424,-109.156 428.5,-114.156 424,-104.156 424,-104.156"/>
<ellipse fill="black" stroke="black" cx="424" cy="-53.1344" rx="4" ry="4"/>
<text text-anchor="middle" x="445" y="-82.9" font-family="Times,serif" font-size="14.00">medias</text>
</g>
<!-- User -->
<g id="node11" class="node"><title>User</title>
<polyline fill="none" stroke="black" points="705.5,-391 840.5,-391 "/>
<path fill="none" stroke="black" d="M840.5,-391C846.5,-391 852.5,-397 852.5,-403"/>
<polyline fill="none" stroke="black" points="852.5,-403 852.5,-515 "/>
<path fill="none" stroke="black" d="M852.5,-515C852.5,-521 846.5,-527 840.5,-527"/>
<polyline fill="none" stroke="black" points="840.5,-527 705.5,-527 "/>
<path fill="none" stroke="black" d="M705.5,-527C699.5,-527 693.5,-521 693.5,-515"/>
<polyline fill="none" stroke="black" points="693.5,-515 693.5,-403 "/>
<path fill="none" stroke="black" d="M693.5,-403C693.5,-397 699.5,-391 705.5,-391"/>
<text text-anchor="middle" x="773" y="-510.4" font-family="Times,serif" font-size="14.00">User</text>
<polyline fill="none" stroke="black" points="693.5,-504 852.5,-504 "/>
<text text-anchor="start" x="701.5" y="-487.4" font-family="Times,serif" font-size="14.00">login :string</text>
<text text-anchor="start" x="701.5" y="-472.4" font-family="Times,serif" font-size="14.00">email :string</text>
<text text-anchor="start" x="701.5" y="-457.4" font-family="Times,serif" font-size="14.00">crypted_password :string</text>
<text text-anchor="start" x="701.5" y="-442.4" font-family="Times,serif" font-size="14.00">password_salt :string</text>
<text text-anchor="start" x="701.5" y="-427.4" font-family="Times,serif" font-size="14.00">persistence_token :string</text>
<text text-anchor="start" x="701.5" y="-412.4" font-family="Times,serif" font-size="14.00">created_at :datetime</text>
<text text-anchor="start" x="701.5" y="-397.4" font-family="Times,serif" font-size="14.00">updated_at :datetime</text>
</g>
<!-- UserSession -->
<g id="node12" class="node"><title>UserSession</title>
<polygon fill="none" stroke="black" points="928.5,-275 928.5,-321 1015.5,-321 1015.5,-275 928.5,-275"/>
<text text-anchor="middle" x="972" y="-304.4" font-family="Times,serif" font-size="14.00">UserSession</text>
<polyline fill="none" stroke="black" points="928.5,-298 1015.5,-298 "/>
<text text-anchor="middle" x="972" y="-281.4" font-family="Times,serif" font-size="14.00"> </text>
</g>
<!-- Authlogic::Session::Base -->
<g id="node27" class="node"><title>Authlogic::Session::Base</title>
<ellipse fill="none" stroke="black" cx="972" cy="-459" rx="102.19" ry="18"/>
<text text-anchor="middle" x="972" y="-453.9" font-family="Times,serif" font-size="14.00">Authlogic::Session::Base</text>
</g>
<!-- Authlogic::Session::Base&#45;&gt;UserSession -->
<g id="edge28" class="edge"><title>Authlogic::Session::Base&#45;&gt;UserSession</title>
<path fill="none" stroke="black" d="M972,-440.844C972,-411.403 972,-353.296 972,-321.005"/>
</g>
</g>
</svg>
